<?xml version="1.0" encoding="utf-8"?>
<!-- Generator: Adobe Illustrator 24.1.1, SVG Export Plug-In . SVG Version: 6.00 Build 0)  -->
<svg version="1.1" id="Layer_1" xmlns="http://www.w3.org/2000/svg" xmlns:xlink="http://www.w3.org/1999/xlink" x="0px" y="0px"
	 viewBox="0 0 318 318" style="enable-background:new 0 0 318 318;" xml:space="preserve">
<style type="text/css">
	.st0{fill:none;stroke:#000000;stroke-width:6;stroke-miterlimit:10;}
	.st1{fill:none;stroke:#000000;stroke-width:4;stroke-miterlimit:10;}
</style>
<g>
	<path class="st0" d="M315,159c0,41.16-15.94,78.59-41.98,106.47C250.71,225.52,208.01,198.5,159,198.5
		c36.17,0,65.5-29.33,65.5-65.5c0-36.17-29.33-65.5-65.5-65.5S93.5,96.83,93.5,133c0,36.17,29.33,65.5,65.5,65.5
		c-49.01,0-91.71,27.02-114.02,66.97C18.94,237.59,3,200.16,3,159C3,72.84,72.84,3,159,3S315,72.84,315,159z"/>
	<circle class="st1" cx="159" cy="133" r="65.5"/>
	<path class="st0" d="M273.02,265.47C244.55,295.95,204,315,159,315s-85.55-19.05-114.02-49.53C67.29,225.52,109.99,198.5,159,198.5
		S250.71,225.52,273.02,265.47z"/>
</g>
</svg>
